<?xml version="1.0" encoding="UTF-8"?>
<svg xmlns="http://www.w3.org/2000/svg" xmlns:xlink="http://www.w3.org/1999/xlink" width="60px" height="60px" viewBox="0 0 60 60" version="1.1">
<g id="surface1">
<path style=" stroke:none;fill-rule:nonzero;fill:rgb(100%,9.019608%,26.666668%);fill-opacity:1;" d="M 0 20 L 60 20 L 60 40 L 0 40 Z M 0 20 "/>
<path style=" stroke:none;fill-rule:nonzero;fill:rgb(100%,100%,100%);fill-opacity:1;" d="M 14.917969 32.578125 C 15.382812 33.003906 15.894531 33.140625 16.453125 33.175781 C 17.257812 33.222656 17.972656 32.980469 18.609375 32.492188 C 18.761719 32.371094 18.8125 32.335938 18.8125 32.335938 C 18.8125 32.335938 19.78125 33.097656 20.183594 33.402344 C 19.855469 33.789062 19.472656 34.054688 19.054688 34.269531 C 17.675781 34.976562 16.246094 35.128906 14.777344 34.597656 C 13.09375 33.992188 12.113281 32.484375 12.203125 30.703125 C 12.292969 28.902344 13.457031 27.441406 15.191406 27.023438 C 16.523438 26.703125 17.796875 26.84375 18.917969 27.695312 C 19.730469 28.316406 20.167969 29.296875 20.351562 30.28125 C 20.351562 30.28125 17.109375 31.667969 15.609375 32.289062 C 15.390625 32.378906 15.175781 32.46875 14.917969 32.578125 Z M 14.339844 31.160156 C 15.550781 30.660156 16.757812 30.160156 17.964844 29.660156 C 17.546875 28.757812 16.597656 28.386719 15.632812 28.722656 C 14.699219 29.050781 14.101562 30.15625 14.339844 31.160156 Z M 14.339844 31.160156 "/>
<path style=" stroke:none;fill-rule:nonzero;fill:rgb(100%,100%,100%);fill-opacity:1;" d="M 33.84375 34.917969 C 31.804688 34.894531 30.148438 33.582031 29.769531 31.667969 C 29.304688 29.351562 30.980469 27.125 33.34375 26.90625 C 34.945312 26.761719 36.308594 27.226562 37.289062 28.53125 C 39.101562 30.957031 37.5625 34.480469 34.546875 34.851562 C 34.3125 34.882812 34.078125 34.894531 33.84375 34.917969 Z M 33.886719 33.042969 C 35.046875 33.046875 35.914062 32.140625 35.921875 30.914062 C 35.929688 29.699219 35.015625 28.734375 33.859375 28.730469 C 32.691406 28.726562 31.824219 29.648438 31.828125 30.890625 C 31.832031 32.09375 32.734375 33.039062 33.886719 33.042969 Z M 33.886719 33.042969 "/>
<path style=" stroke:none;fill-rule:nonzero;fill:rgb(100%,100%,100%);fill-opacity:1;" d="M 50.78125 34.917969 C 48.738281 34.894531 47.085938 33.582031 46.703125 31.667969 C 46.242188 29.351562 47.914062 27.125 50.277344 26.90625 C 51.878906 26.761719 53.246094 27.226562 54.222656 28.53125 C 56.035156 30.957031 54.496094 34.480469 51.480469 34.851562 C 51.246094 34.882812 51.015625 34.894531 50.78125 34.917969 Z M 50.824219 33.042969 C 51.984375 33.046875 52.851562 32.140625 52.859375 30.914062 C 52.863281 29.699219 51.953125 28.734375 50.796875 28.730469 C 49.625 28.726562 48.757812 29.648438 48.761719 30.890625 C 48.765625 32.09375 49.671875 33.039062 50.824219 33.042969 Z M 50.824219 33.042969 "/>
<path style=" stroke:none;fill-rule:nonzero;fill:rgb(100%,100%,100%);fill-opacity:1;" d="M 26.722656 34.984375 C 26.722656 34.863281 26.722656 31.75 26.722656 30.40625 C 26.71875 29.457031 25.964844 28.746094 24.953125 28.742188 C 23.960938 28.734375 23.226562 29.441406 23.222656 30.40625 C 23.222656 31.75 23.222656 35.003906 23.222656 35.003906 L 21.046875 35.007812 L 21.054688 27.035156 C 21.054688 27.035156 22.515625 27.011719 23.207031 27.011719 C 23.207031 27.34375 23.203125 28.050781 23.203125 28.050781 C 23.203125 28.050781 23.375 27.890625 23.425781 27.839844 C 24.875 26.371094 27.460938 26.621094 28.464844 28.328125 C 28.746094 28.800781 28.890625 29.3125 28.890625 29.855469 C 28.902344 31.4375 28.894531 34.984375 28.894531 34.984375 C 28.894531 34.984375 27.453125 34.984375 26.722656 34.984375 Z M 26.722656 34.984375 "/>
<path style=" stroke:none;fill-rule:nonzero;fill:rgb(100%,100%,100%);fill-opacity:1;" d="M 37.703125 27.011719 C 38.507812 27.011719 40.160156 27.027344 40.160156 27.027344 C 40.160156 27.027344 42.007812 32.058594 42.066406 32.214844 C 42.210938 31.828125 43.578125 28.101562 43.96875 26.996094 C 44.777344 27.019531 45.578125 27.011719 46.429688 27.011719 C 46.394531 27.113281 43.230469 35.007812 43.230469 35.007812 L 40.882812 35.003906 C 39.882812 32.550781 37.738281 27.113281 37.703125 27.011719 Z M 37.703125 27.011719 "/>
<path style=" stroke:none;fill-rule:nonzero;fill:rgb(100%,100%,100%);fill-opacity:1;" d="M 7.207031 32.992188 C 7.339844 32.992188 12.042969 33.003906 12.042969 33.003906 L 12.042969 34.980469 L 5 34.984375 L 5 24.894531 L 7.210938 24.894531 C 7.210938 24.894531 7.207031 32.855469 7.207031 32.992188 Z M 7.207031 32.992188 "/>
</g>
</svg>
