<?xml version="1.0" encoding="UTF-8"?>
<svg xmlns="http://www.w3.org/2000/svg" xmlns:xlink="http://www.w3.org/1999/xlink" width="60px" height="60px" viewBox="0 0 60 40" version="1.1">
<g id="surface1">
<path style=" stroke:none;fill-rule:nonzero;fill:rgb(91.764706%,0%,16.078432%);fill-opacity:1;" d="M 10.074219 22.949219 L 10.074219 22.042969 L 10.976562 22.042969 L 10.976562 19.335938 L 10.074219 19.335938 L 10.074219 18.414062 L 11.882812 18.414062 L 11.882812 22.027344 L 12.800781 22.027344 L 12.800781 22.929688 L 10.074219 22.929688 Z M 15.953125 25.195312 L 15.953125 19.320312 L 15.050781 19.320312 L 15.050781 24.292969 L 7.824219 24.292969 L 7.824219 17.070312 L 12.800781 17.070312 L 12.800781 16.167969 L 6.921875 16.167969 L 6.921875 25.195312 Z M 15.953125 18.414062 L 15.953125 17.050781 L 17.316406 17.050781 L 17.316406 16.167969 L 15.953125 16.167969 L 15.953125 14.804688 L 15.050781 14.804688 L 15.050781 16.167969 L 13.6875 16.167969 L 13.6875 17.070312 L 15.050781 17.070312 L 15.050781 18.433594 L 15.953125 18.433594 Z M 15.953125 18.414062 "/>
<path style=" stroke:none;fill-rule:nonzero;fill:rgb(91.764706%,0%,16.078432%);fill-opacity:1;" d="M 25.527344 20 C 25.597656 20.203125 25.628906 20.425781 25.628906 20.679688 C 25.628906 20.9375 25.597656 21.160156 25.527344 21.363281 C 25.460938 21.566406 25.355469 21.738281 25.238281 21.875 C 25.117188 22.011719 24.964844 22.113281 24.777344 22.199219 C 24.589844 22.265625 24.402344 22.316406 24.164062 22.316406 C 23.941406 22.316406 23.738281 22.28125 23.550781 22.199219 C 23.363281 22.128906 23.210938 22.011719 23.089844 21.875 C 22.972656 21.738281 22.871094 21.566406 22.800781 21.363281 C 22.734375 21.160156 22.699219 20.9375 22.699219 20.679688 C 22.699219 20.425781 22.734375 20.203125 22.800781 20 C 22.871094 19.796875 22.972656 19.625 23.089844 19.488281 C 23.210938 19.351562 23.363281 19.234375 23.550781 19.164062 C 23.738281 19.097656 23.941406 19.046875 24.164062 19.046875 C 24.386719 19.046875 24.589844 19.078125 24.777344 19.164062 C 24.964844 19.234375 25.117188 19.351562 25.238281 19.488281 C 25.355469 19.625 25.460938 19.796875 25.527344 20 M 37.164062 18.859375 L 36.414062 18.859375 L 36.414062 20.765625 L 37.164062 20.765625 C 37.351562 20.765625 37.503906 20.75 37.640625 20.699219 C 37.777344 20.648438 37.898438 20.578125 37.980469 20.492188 C 38.066406 20.410156 38.152344 20.308594 38.1875 20.1875 C 38.238281 20.066406 38.253906 19.933594 38.253906 19.796875 C 38.253906 19.507812 38.167969 19.265625 37.980469 19.097656 C 37.8125 18.945312 37.539062 18.859375 37.164062 18.859375 M 53.078125 25.195312 L 19.105469 25.195312 L 19.105469 16.167969 L 53.078125 16.167969 Z M 26.515625 20.679688 C 26.515625 20.339844 26.464844 20.035156 26.34375 19.746094 C 26.226562 19.453125 26.074219 19.199219 25.867188 18.996094 C 25.664062 18.789062 25.425781 18.621094 25.136719 18.5 C 24.847656 18.382812 24.523438 18.3125 24.183594 18.3125 C 23.839844 18.3125 23.515625 18.382812 23.226562 18.484375 C 22.9375 18.601562 22.699219 18.773438 22.476562 18.976562 C 22.273438 19.183594 22.121094 19.4375 22 19.726562 C 21.882812 20.015625 21.832031 20.324219 21.832031 20.664062 C 21.832031 21.003906 21.882812 21.3125 22 21.601562 C 22.121094 21.890625 22.273438 22.148438 22.476562 22.351562 C 22.683594 22.554688 22.9375 22.726562 23.226562 22.84375 C 23.515625 22.964844 23.839844 23.015625 24.183594 23.015625 C 24.523438 23.015625 24.847656 22.964844 25.136719 22.84375 C 25.425781 22.726562 25.664062 22.554688 25.867188 22.351562 C 26.074219 22.148438 26.226562 21.890625 26.34375 21.601562 C 26.449219 21.328125 26.515625 21.023438 26.515625 20.679688 M 31.082031 18.363281 L 30.332031 18.363281 L 30.332031 21.378906 C 30.332031 21.449219 30.347656 21.515625 30.347656 21.601562 L 27.929688 18.519531 C 27.914062 18.484375 27.878906 18.464844 27.863281 18.449219 C 27.84375 18.433594 27.828125 18.414062 27.8125 18.414062 C 27.792969 18.398438 27.777344 18.398438 27.742188 18.398438 L 27.199219 18.398438 L 27.199219 23.015625 L 27.945312 23.015625 L 27.945312 19.964844 C 27.945312 19.898438 27.929688 19.828125 27.929688 19.761719 L 30.347656 22.84375 C 30.382812 22.894531 30.433594 22.949219 30.484375 22.964844 C 30.535156 22.980469 30.585938 23 30.65625 23 L 31.097656 23 L 31.097656 18.363281 Z M 34.933594 18.363281 L 32.019531 18.363281 L 32.019531 22.980469 L 34.933594 22.980469 L 34.933594 22.300781 L 32.886719 22.300781 L 32.886719 20.988281 L 34.507812 20.988281 L 34.507812 20.324219 L 32.886719 20.324219 L 32.886719 19.0625 L 34.933594 19.0625 Z M 38.902344 19.796875 C 38.902344 19.574219 38.867188 19.386719 38.800781 19.199219 C 38.730469 19.027344 38.628906 18.875 38.476562 18.738281 C 38.339844 18.621094 38.152344 18.519531 37.929688 18.449219 C 37.710938 18.382812 37.453125 18.347656 37.164062 18.347656 L 35.800781 18.347656 L 35.800781 22.980469 L 36.429688 22.980469 L 36.429688 21.261719 L 37.179688 21.261719 C 37.453125 21.261719 37.710938 21.226562 37.914062 21.160156 C 38.136719 21.089844 38.304688 20.988281 38.457031 20.851562 C 38.613281 20.714844 38.714844 20.5625 38.78125 20.390625 C 38.851562 20.203125 38.902344 20.015625 38.902344 19.796875 M 42.328125 22.46875 L 40.316406 22.46875 L 40.316406 18.363281 L 39.6875 18.363281 L 39.6875 23 L 42.328125 23 Z M 46.652344 18.363281 L 46.023438 18.363281 L 46.023438 21.175781 C 46.023438 21.363281 45.988281 21.550781 45.9375 21.703125 C 45.886719 21.855469 45.800781 22.011719 45.699219 22.128906 C 45.597656 22.25 45.460938 22.335938 45.324219 22.402344 C 45.171875 22.46875 45 22.503906 44.8125 22.503906 C 44.625 22.503906 44.457031 22.46875 44.304688 22.402344 C 44.148438 22.335938 44.011719 22.25 43.910156 22.128906 C 43.808594 22.011719 43.722656 21.875 43.671875 21.722656 C 43.621094 21.566406 43.585938 21.378906 43.585938 21.191406 L 43.585938 18.363281 L 42.957031 18.363281 L 42.957031 21.175781 C 42.957031 21.449219 42.992188 21.6875 43.074219 21.925781 C 43.160156 22.148438 43.28125 22.351562 43.449219 22.523438 C 43.605469 22.691406 43.808594 22.828125 44.03125 22.914062 C 44.25 23.015625 44.507812 23.050781 44.796875 23.050781 C 45.085938 23.050781 45.34375 23 45.5625 22.914062 C 45.785156 22.8125 45.988281 22.691406 46.144531 22.523438 C 46.296875 22.351562 46.414062 22.164062 46.5 21.925781 C 46.585938 21.703125 46.621094 21.449219 46.621094 21.175781 L 46.621094 18.363281 Z M 50.367188 21.585938 C 50.367188 21.398438 50.332031 21.226562 50.265625 21.105469 C 50.199219 20.972656 50.113281 20.867188 50.011719 20.765625 C 49.90625 20.679688 49.789062 20.597656 49.652344 20.546875 C 49.515625 20.476562 49.378906 20.425781 49.242188 20.390625 C 49.105469 20.339844 48.972656 20.308594 48.835938 20.253906 C 48.699219 20.203125 48.578125 20.152344 48.476562 20.101562 C 48.375 20.035156 48.289062 19.964844 48.222656 19.878906 C 48.152344 19.796875 48.117188 19.691406 48.117188 19.558594 C 48.117188 19.453125 48.136719 19.371094 48.171875 19.265625 C 48.203125 19.183594 48.253906 19.097656 48.339844 19.046875 C 48.410156 18.976562 48.511719 18.925781 48.613281 18.894531 C 48.714844 18.859375 48.851562 18.839844 48.988281 18.839844 C 49.140625 18.839844 49.261719 18.859375 49.363281 18.894531 C 49.464844 18.925781 49.550781 18.976562 49.636719 19.011719 C 49.703125 19.0625 49.773438 19.097656 49.824219 19.132812 C 49.875 19.164062 49.90625 19.183594 49.941406 19.183594 C 49.976562 19.183594 50.011719 19.183594 50.027344 19.164062 C 50.042969 19.148438 50.078125 19.132812 50.09375 19.097656 L 50.25 18.808594 C 50.09375 18.652344 49.90625 18.535156 49.6875 18.449219 C 49.480469 18.363281 49.242188 18.332031 48.972656 18.332031 C 48.734375 18.332031 48.527344 18.363281 48.359375 18.433594 C 48.1875 18.5 48.035156 18.601562 47.914062 18.722656 C 47.796875 18.839844 47.691406 18.976562 47.640625 19.132812 C 47.574219 19.285156 47.539062 19.4375 47.539062 19.609375 C 47.539062 19.8125 47.574219 19.984375 47.640625 20.121094 C 47.710938 20.253906 47.796875 20.375 47.898438 20.460938 C 48 20.546875 48.117188 20.628906 48.253906 20.679688 L 48.664062 20.835938 C 48.800781 20.886719 48.9375 20.921875 49.074219 20.972656 C 49.210938 21.003906 49.328125 21.054688 49.429688 21.125 C 49.53125 21.191406 49.617188 21.261719 49.6875 21.347656 C 49.753906 21.429688 49.789062 21.550781 49.789062 21.6875 C 49.789062 21.804688 49.773438 21.925781 49.71875 22.027344 C 49.667969 22.128906 49.617188 22.214844 49.53125 22.300781 C 49.449219 22.367188 49.347656 22.4375 49.242188 22.46875 C 49.125 22.503906 48.988281 22.539062 48.851562 22.539062 C 48.664062 22.539062 48.527344 22.523438 48.390625 22.46875 C 48.273438 22.417969 48.171875 22.367188 48.066406 22.316406 C 47.984375 22.265625 47.914062 22.199219 47.847656 22.164062 C 47.796875 22.113281 47.746094 22.09375 47.691406 22.09375 C 47.660156 22.09375 47.640625 22.09375 47.609375 22.113281 C 47.589844 22.128906 47.558594 22.148438 47.539062 22.164062 L 47.351562 22.453125 C 47.523438 22.640625 47.746094 22.792969 47.984375 22.894531 C 48.238281 23 48.492188 23.066406 48.800781 23.066406 C 49.039062 23.066406 49.261719 23.03125 49.464844 22.949219 C 49.652344 22.878906 49.824219 22.761719 49.960938 22.640625 C 50.09375 22.503906 50.199219 22.351562 50.265625 22.179688 C 50.332031 21.976562 50.367188 21.789062 50.367188 21.585938 "/>
</g>
</svg>
