<?xml version="1.0" encoding="UTF-8"?>
<svg xmlns="http://www.w3.org/2000/svg" xmlns:xlink="http://www.w3.org/1999/xlink" width="60px" height="60px" viewBox="0 0 60 40" version="1.1">
<g id="surface1">
<path style=" stroke:none;fill-rule:nonzero;fill:rgb(0%,41.960785%,20%);fill-opacity:1;" d="M 18.65625 20.191406 L 18.65625 14.898438 L 20.308594 14.898438 L 20.308594 15.25 C 20.308594 15.441406 20.3125 15.597656 20.316406 15.597656 C 20.320312 15.597656 20.421875 15.535156 20.546875 15.457031 C 22.007812 14.542969 24.128906 14.265625 26.035156 14.746094 C 27.75 15.175781 28.992188 16.199219 29.433594 17.542969 C 29.691406 18.328125 29.679688 19.199219 29.394531 19.957031 C 29.042969 20.902344 28.316406 21.664062 27.269531 22.183594 C 26.355469 22.636719 25.3125 22.867188 24.140625 22.867188 C 23.167969 22.867188 22.261719 22.703125 21.464844 22.386719 C 21.148438 22.261719 20.746094 22.054688 20.5 21.894531 L 20.308594 21.773438 L 20.308594 25.484375 L 18.65625 25.484375 Z M 24.9375 21.457031 C 25.867188 21.328125 26.589844 21.03125 27.128906 20.5625 C 27.539062 20.207031 27.820312 19.714844 27.929688 19.175781 C 27.972656 18.953125 27.972656 18.433594 27.929688 18.214844 C 27.804688 17.578125 27.4375 17.023438 26.894531 16.632812 C 26.675781 16.476562 26.230469 16.253906 25.945312 16.160156 C 25.140625 15.886719 24.164062 15.808594 23.273438 15.9375 C 21.722656 16.167969 20.671875 16.933594 20.394531 18.050781 C 20.269531 18.542969 20.289062 19.074219 20.453125 19.539062 C 20.828125 20.597656 21.925781 21.296875 23.476562 21.472656 C 23.789062 21.507812 24.644531 21.5 24.9375 21.457031 Z M 30.414062 20.191406 L 30.414062 14.898438 L 32.0625 14.898438 L 32.0625 15.25 C 32.0625 15.441406 32.066406 15.597656 32.070312 15.597656 C 32.074219 15.597656 32.167969 15.542969 32.273438 15.472656 C 32.519531 15.3125 33.007812 15.070312 33.320312 14.953125 C 34.667969 14.457031 36.3125 14.375 37.753906 14.738281 C 40.105469 15.328125 41.488281 16.945312 41.355469 18.945312 C 41.257812 20.472656 40.242188 21.726562 38.570312 22.386719 C 38.023438 22.601562 37.464844 22.738281 36.765625 22.824219 C 36.394531 22.871094 35.402344 22.871094 35.015625 22.824219 C 33.925781 22.695312 32.96875 22.371094 32.21875 21.878906 L 32.0625 21.777344 L 32.0625 25.484375 L 30.414062 25.484375 Z M 36.734375 21.449219 C 38.019531 21.257812 38.925781 20.742188 39.402344 19.925781 C 39.679688 19.449219 39.78125 18.820312 39.679688 18.234375 C 39.464844 17.019531 38.398438 16.179688 36.761719 15.9375 C 35.683594 15.78125 34.460938 15.9375 33.632812 16.34375 C 32.789062 16.757812 32.277344 17.375 32.105469 18.199219 C 32.058594 18.417969 32.058594 18.972656 32.105469 19.183594 C 32.226562 19.757812 32.507812 20.226562 32.929688 20.582031 C 33.511719 21.070312 34.265625 21.363281 35.25 21.476562 C 35.574219 21.511719 36.410156 21.5 36.734375 21.449219 Z M 11.839844 22.855469 C 10.960938 22.777344 10.214844 22.605469 9.578125 22.332031 C 8.132812 21.714844 7.222656 20.671875 6.972656 19.359375 C 6.925781 19.105469 6.90625 18.539062 6.9375 18.269531 C 7.117188 16.691406 8.277344 15.445312 10.117188 14.855469 C 11.09375 14.539062 12.296875 14.4375 13.375 14.574219 C 15.355469 14.828125 16.851562 15.746094 17.507812 17.109375 C 18.046875 18.21875 17.976562 19.566406 17.332031 20.601562 C 17.042969 21.066406 16.566406 21.550781 16.074219 21.871094 C 15.308594 22.371094 14.394531 22.683594 13.285156 22.824219 C 13.0625 22.851562 12.046875 22.871094 11.839844 22.855469 Z M 13.011719 21.476562 C 13.871094 21.382812 14.59375 21.136719 15.140625 20.753906 C 15.585938 20.4375 15.9375 19.972656 16.097656 19.492188 C 16.191406 19.210938 16.207031 19.078125 16.207031 18.695312 C 16.207031 18.308594 16.191406 18.179688 16.097656 17.898438 C 15.796875 16.972656 14.914062 16.285156 13.679688 16.011719 C 12.59375 15.773438 11.332031 15.855469 10.398438 16.226562 C 9.722656 16.496094 9.191406 16.929688 8.878906 17.460938 C 8.546875 18.03125 8.472656 18.804688 8.683594 19.472656 C 8.910156 20.191406 9.511719 20.792969 10.339844 21.132812 C 10.789062 21.316406 11.347656 21.445312 11.902344 21.488281 C 12.113281 21.507812 12.789062 21.5 13.011719 21.476562 Z M 47.066406 22.855469 C 47.03125 22.851562 46.910156 22.839844 46.796875 22.828125 C 45.886719 22.742188 44.925781 22.453125 44.226562 22.054688 C 43.273438 21.515625 42.613281 20.753906 42.3125 19.84375 C 42.109375 19.226562 42.074219 18.535156 42.214844 17.898438 C 42.425781 16.933594 43.011719 16.117188 43.921875 15.511719 C 45.125 14.714844 46.886719 14.363281 48.589844 14.578125 C 50.007812 14.753906 51.171875 15.273438 51.984375 16.082031 C 52.601562 16.699219 52.957031 17.421875 53.058594 18.269531 C 53.085938 18.492188 53.082031 18.9375 53.050781 19.171875 C 52.828125 20.859375 51.492188 22.148438 49.445312 22.652344 C 48.824219 22.804688 48.433594 22.847656 47.703125 22.855469 C 47.386719 22.859375 47.101562 22.859375 47.066406 22.855469 Z M 48.152344 21.484375 C 49.242188 21.382812 50.128906 21.023438 50.699219 20.453125 C 51.085938 20.066406 51.3125 19.640625 51.398438 19.125 C 51.4375 18.914062 51.433594 18.472656 51.398438 18.253906 C 51.199219 17.070312 50.15625 16.210938 48.609375 15.960938 C 48.238281 15.898438 47.992188 15.878906 47.605469 15.878906 C 45.871094 15.878906 44.523438 16.535156 44.007812 17.628906 C 43.851562 17.953125 43.78125 18.289062 43.78125 18.695312 C 43.78125 19.226562 43.90625 19.648438 44.1875 20.066406 C 44.699219 20.839844 45.675781 21.332031 46.964844 21.472656 C 47.230469 21.503906 47.882812 21.507812 48.152344 21.484375 Z M 48.152344 21.484375 "/>
</g>
</svg>
