<?xml version="1.0" encoding="UTF-8"?>
<svg xmlns="http://www.w3.org/2000/svg" xmlns:xlink="http://www.w3.org/1999/xlink" width="60px" height="60px" viewBox="0 0 60 60" version="1.1">
<g id="surface1">
<path style=" stroke:none;fill-rule:nonzero;fill:rgb(5.098039%,27.843139%,63.137257%);fill-opacity:1;" d="M 59.960938 24.78125 C 60.78125 29.464844 48.027344 35.601562 31.476562 38.484375 C 14.929688 41.363281 0.851562 39.902344 0.0351562 35.214844 C -0.78125 30.53125 11.976562 24.398438 28.523438 21.519531 C 45.074219 18.632812 59.148438 20.097656 59.960938 24.78125 Z M 59.960938 24.78125 "/>
<path style=" stroke:none;fill-rule:nonzero;fill:rgb(98.039216%,98.039216%,98.039216%);fill-opacity:1;" d="M 44.386719 31.734375 L 44.300781 26.863281 L 45.839844 26.863281 L 45.839844 33.003906 L 43.632812 33.003906 L 42.097656 27.964844 L 42.066406 27.964844 L 42.148438 33.003906 L 40.625 33.003906 L 40.625 26.863281 L 42.925781 26.863281 L 44.355469 31.734375 Z M 44.386719 31.734375 "/>
<path style=" stroke:none;fill-rule:nonzero;fill:rgb(98.039216%,98.039216%,98.039216%);fill-opacity:1;" d="M 16.472656 27.441406 L 15.621094 33.070312 L 13.945312 33.070312 L 15.09375 26.863281 L 17.855469 26.863281 L 19 33.070312 L 17.332031 33.070312 L 16.503906 27.441406 Z M 16.472656 27.441406 "/>
<path style=" stroke:none;fill-rule:nonzero;fill:rgb(98.039216%,98.039216%,98.039216%);fill-opacity:1;" d="M 23.703125 31.609375 L 24.472656 26.863281 L 27 26.863281 L 27.136719 33.070312 L 25.585938 33.070312 L 25.542969 27.492188 L 25.511719 27.492188 L 24.476562 33.070312 L 22.902344 33.070312 L 21.863281 27.492188 L 21.828125 27.492188 L 21.792969 33.070312 L 20.238281 33.070312 L 20.375 26.863281 L 22.90625 26.863281 L 23.671875 31.609375 Z M 23.703125 31.609375 "/>
<path style=" stroke:none;fill-rule:nonzero;fill:rgb(98.039216%,98.039216%,98.039216%);fill-opacity:1;" d="M 11.332031 31.320312 C 11.394531 31.46875 11.375 31.664062 11.347656 31.777344 C 11.296875 31.984375 11.15625 32.195312 10.742188 32.195312 C 10.355469 32.195312 10.117188 31.972656 10.117188 31.632812 L 10.117188 31.03125 L 8.453125 31.03125 L 8.453125 31.511719 C 8.453125 32.894531 9.542969 33.3125 10.707031 33.3125 C 11.832031 33.3125 12.753906 32.929688 12.902344 31.894531 C 12.976562 31.359375 12.921875 31.011719 12.894531 30.875 C 12.632812 29.578125 10.277344 29.191406 10.105469 28.464844 C 10.074219 28.339844 10.082031 28.207031 10.097656 28.136719 C 10.140625 27.9375 10.277344 27.722656 10.664062 27.722656 C 11.027344 27.722656 11.238281 27.945312 11.238281 28.285156 C 11.238281 28.398438 11.238281 28.667969 11.238281 28.667969 L 12.785156 28.667969 L 12.785156 28.234375 C 12.785156 26.882812 11.574219 26.671875 10.695312 26.671875 C 9.589844 26.671875 8.691406 27.035156 8.523438 28.042969 C 8.480469 28.324219 8.472656 28.570312 8.539062 28.882812 C 8.8125 30.148438 11.015625 30.515625 11.332031 31.320312 Z M 11.332031 31.320312 "/>
<path style=" stroke:none;fill-rule:nonzero;fill:rgb(98.039216%,98.039216%,98.039216%);fill-opacity:1;" d="M 31.503906 31.308594 C 31.566406 31.457031 31.546875 31.644531 31.519531 31.761719 C 31.46875 31.96875 31.328125 32.171875 30.921875 32.171875 C 30.535156 32.171875 30.300781 31.949219 30.300781 31.617188 L 30.300781 31.023438 L 28.652344 31.023438 L 28.652344 31.496094 C 28.652344 32.867188 29.730469 33.28125 30.886719 33.28125 C 31.996094 33.28125 32.910156 32.902344 33.054688 31.878906 C 33.132812 31.34375 33.078125 31 33.050781 30.867188 C 32.789062 29.582031 30.457031 29.199219 30.285156 28.480469 C 30.257812 28.355469 30.265625 28.226562 30.28125 28.15625 C 30.324219 27.957031 30.457031 27.746094 30.839844 27.746094 C 31.203125 27.746094 31.410156 27.964844 31.410156 28.300781 C 31.410156 28.414062 31.410156 28.679688 31.410156 28.679688 L 32.945312 28.679688 L 32.945312 28.25 C 32.945312 26.914062 31.742188 26.703125 30.871094 26.703125 C 29.78125 26.703125 28.886719 27.0625 28.726562 28.066406 C 28.679688 28.339844 28.675781 28.585938 28.738281 28.894531 C 29.007812 30.148438 31.1875 30.511719 31.503906 31.308594 Z M 31.503906 31.308594 "/>
<path style=" stroke:none;fill-rule:nonzero;fill:rgb(98.039216%,98.039216%,98.039216%);fill-opacity:1;" d="M 36.714844 32.140625 C 37.144531 32.140625 37.277344 31.84375 37.308594 31.691406 C 37.320312 31.625 37.324219 31.535156 37.324219 31.453125 L 37.324219 26.863281 L 38.890625 26.863281 L 38.890625 31.3125 C 38.894531 31.425781 38.886719 31.660156 38.878906 31.71875 C 38.769531 32.878906 37.851562 33.253906 36.714844 33.253906 C 35.574219 33.253906 34.65625 32.875 34.546875 31.71875 C 34.542969 31.660156 34.53125 31.425781 34.535156 31.3125 L 34.535156 26.863281 L 36.101562 26.863281 L 36.101562 31.453125 C 36.101562 31.53125 36.105469 31.625 36.117188 31.691406 C 36.152344 31.839844 36.28125 32.140625 36.714844 32.140625 Z M 36.714844 32.140625 "/>
<path style=" stroke:none;fill-rule:nonzero;fill:rgb(98.039216%,98.039216%,98.039216%);fill-opacity:1;" d="M 49.65625 32.074219 C 50.105469 32.074219 50.261719 31.792969 50.292969 31.625 C 50.300781 31.554688 50.304688 31.46875 50.304688 31.390625 L 50.304688 30.488281 L 49.667969 30.488281 L 49.667969 29.585938 L 51.867188 29.585938 L 51.867188 31.25 C 51.867188 31.367188 51.863281 31.453125 51.847656 31.660156 C 51.742188 32.789062 50.765625 33.191406 49.664062 33.191406 C 48.5625 33.191406 47.585938 32.789062 47.480469 31.660156 C 47.464844 31.453125 47.460938 31.367188 47.457031 31.25 L 47.460938 28.640625 C 47.460938 28.527344 47.472656 28.332031 47.484375 28.230469 C 47.625 27.070312 48.5625 26.699219 49.664062 26.699219 C 50.765625 26.699219 51.730469 27.070312 51.84375 28.230469 C 51.863281 28.425781 51.855469 28.640625 51.855469 28.640625 L 51.855469 28.847656 L 50.292969 28.847656 L 50.292969 28.5 C 50.292969 28.5 50.289062 28.351562 50.273438 28.261719 C 50.246094 28.125 50.128906 27.808594 49.652344 27.808594 C 49.203125 27.808594 49.070312 28.109375 49.035156 28.261719 C 49.015625 28.34375 49.011719 28.453125 49.011719 28.554688 L 49.011719 31.390625 C 49.007812 31.472656 49.015625 31.558594 49.027344 31.628906 C 49.050781 31.792969 49.207031 32.074219 49.65625 32.074219 Z M 49.65625 32.074219 "/>
</g>
</svg>
